# xmcd
#
# Track frame offsets:
#	150
#	15615
#	32683
#	52539
#	68604
#	84166
#	102083
#	120285
#	136750
#	147947
#	165791
#	181762
#	194901
#	207975
#	223752
#	238218
#	266055
#
# Disc length: 3561 seconds
#
# Revision: 1
# Processed by: cddbd v1.5.2PL0 Copyright (c) Steve Scherf et al.
# Submitted via: audiograbber 1.83.01
#
DISCID=de0de711
DTITLE=Various Artist - MH1154
DYEAR=1900
DGENRE=Karaoke
TTITLE0=Dixie Chicks - There's Your Trouble
TTITLE1=Twain, Shania - Honey, I'm Home
TTITLE2=Hill, Faith - Let Me Let Go
TTITLE3=McBride, Martina - Happy Girl
TTITLE4=Messina, Jo Dee - Bye Bye
TTITLE5=Judd, Wynonna - Is It Over Yet
TTITLE6=Yearwood, Trisha - You Say You Will
TTITLE7=Tucker, Tanya - Down To My Last Teardrop
TTITLE8=Twain, Shania - Dance With The One That Brought You
TTITLE9=McEntire, Reba - Till You Love Me
TTITLE10=McEntire, Reba - Walk On
TTITLE11=Loveless, Patty - Chains
TTITLE12=Morgan, Lorrie - Go Away
TTITLE13=Carter, Deana - Count Me In
TTITLE14=McBride, Martina - Cheap Whiskey
TTITLE15=Clark, Terri - Now That I Found You
TTITLE16=Data - Data Track
EXTD=
EXTT0=
EXTT1=
EXTT2=
EXTT3=
EXTT4=
EXTT5=
EXTT6=
EXTT7=
EXTT8=
EXTT9=
EXTT10=
EXTT11=
EXTT12=
EXTT13=
EXTT14=
EXTT15=
EXTT16=
PLAYORDER=
